<svg width="56" height="47" viewBox="0 0 56 47" fill="none" xmlns="http://www.w3.org/2000/svg">
<path fill-rule="evenodd" clip-rule="evenodd" d="M45.562 16.0104C48.2891 16.3371 50.4105 18.663 50.4105 21.4766V21.8787C50.4105 24.6922 48.2891 27.0182 45.562 27.3448V41.4664C45.562 42.331 45.0011 43.0631 44.1663 43.2881C43.998 43.3333 43.829 43.3553 43.6627 43.3553C43.0047 43.3553 42.3912 43.0113 42.0444 42.4145C39.0613 37.2825 34.363 33.7746 28.08 31.9882C23.3288 30.6373 19.4083 30.8333 19.3693 30.8355C19.3114 30.8388 19.2539 30.836 19.1971 30.8302H17.9488L20.547 41.5142C20.8146 42.6152 20.5667 43.7576 19.8664 44.6485C19.1662 45.5393 18.1148 46.0502 16.9818 46.0502H14.8787C13.1808 46.0502 11.7147 44.8979 11.3135 43.2481L8.28341 30.7879C3.64295 30.3486 0 26.4312 0 21.6776C0 16.6309 4.10594 12.5249 9.15272 12.5249H19.1989C19.2556 12.5192 19.3128 12.5165 19.3703 12.5198C19.4082 12.5221 23.3288 12.7179 28.08 11.3671C34.3631 9.58066 39.0614 6.07278 42.0444 0.940688C42.4788 0.193329 43.3316 -0.157546 44.1663 0.0672196C45.0011 0.292204 45.562 1.02436 45.562 1.88897V16.0104ZM18.4213 42.0311L18.0758 40.6101H17.201C16.5969 40.6101 16.1072 40.1205 16.1072 39.5164C16.1072 38.9123 16.5969 38.4226 17.201 38.4226H17.5437L17.0019 36.1947H15.9472C15.3431 36.1947 14.8535 35.705 14.8535 35.1009C14.8535 34.4968 15.3431 34.0072 15.9472 34.0072H16.47L15.6975 30.8304H10.545L13.4391 42.7313C13.6011 43.3975 14.193 43.8628 14.8787 43.8628H16.9818C17.4393 43.8628 17.8639 43.6565 18.1465 43.2968C18.4294 42.9371 18.5294 42.4757 18.4213 42.0311ZM43.3743 26.2918V17.0634V2.95745C40.0965 8.05499 35.0121 11.6869 28.6043 13.492C25.0566 14.4914 21.9919 14.6911 20.402 14.717V25.0952V28.6383C21.9917 28.6642 25.0563 28.8638 28.6043 29.8633C35.0122 31.6683 40.0965 35.3003 43.3743 40.3978V26.2918ZM45.5618 25.1325C47.078 24.8262 48.2228 23.4836 48.2228 21.8787V21.4766C48.2228 19.8716 47.0778 18.5291 45.5618 18.2228V25.1325ZM18.2145 28.6429V26V24.0014V14.7124H9.15272C5.31213 14.7124 2.1875 17.837 2.1875 21.6776C2.1875 25.5078 5.29539 28.6251 9.12166 28.6421C9.13205 28.6419 9.14233 28.6403 9.15272 28.6403H16.5564C16.5729 28.6403 16.5891 28.6413 16.6053 28.6422C16.6091 28.6424 16.6129 28.6427 16.6167 28.6429H18.2145Z" fill="#A8B4CA"/>
<path d="M50.7376 15.2712C51.0004 15.2712 51.2641 15.177 51.4737 14.9862L54.6284 12.1131C55.075 11.7064 55.1074 11.0147 54.7006 10.568C54.2938 10.1214 53.6021 10.0891 53.1554 10.4958L50.0009 13.3687C49.5543 13.7755 49.5219 14.4672 49.9287 14.9139C50.1446 15.1509 50.4405 15.2712 50.7376 15.2712Z" fill="#A8B4CA"/>
<path d="M51.4738 28.3189C51.0271 27.9122 50.3354 27.9445 49.9287 28.3911C49.5219 28.8376 49.5543 29.5294 50.0009 29.9362L53.1554 32.8092C53.3652 33.0001 53.6288 33.0943 53.8917 33.0943C54.1887 33.0943 54.4848 32.974 54.7006 32.737C55.1074 32.2904 55.075 31.5986 54.6284 31.1918L51.4738 28.3189Z" fill="#A8B4CA"/>
<path d="M54.9067 20.5587H52.4844C51.8803 20.5587 51.3906 21.0484 51.3906 21.6525C51.3906 22.2566 51.8803 22.7462 52.4844 22.7462H54.9067C55.5108 22.7462 56.0005 22.2566 56.0005 21.6525C56.0005 21.0484 55.5108 20.5587 54.9067 20.5587Z" fill="#A8B4CA"/>
</svg>
