<svg width="21" height="20" viewBox="0 0 21 20" fill="none" xmlns="http://www.w3.org/2000/svg">
<circle cx="10" cy="10" r="9.5" fill="#FF0320" stroke="white"/>
<path d="M6.83203 9.80469L7.32422 5.46875H12.1055V6.88086H8.71289L8.50195 8.71484C8.9043 8.5 9.33203 8.39258 9.78516 8.39258C10.5977 8.39258 11.2344 8.64453 11.6953 9.14844C12.1562 9.65234 12.3867 10.3574 12.3867 11.2637C12.3867 11.8145 12.2695 12.3086 12.0352 12.7461C11.8047 13.1797 11.4727 13.5176 11.0391 13.7598C10.6055 13.998 10.0938 14.1172 9.50391 14.1172C8.98828 14.1172 8.50977 14.0137 8.06836 13.8066C7.62695 13.5957 7.27734 13.3008 7.01953 12.9219C6.76562 12.543 6.63086 12.1113 6.61523 11.627H8.29102C8.32617 11.9824 8.44922 12.2598 8.66016 12.459C8.875 12.6543 9.1543 12.752 9.49805 12.752C9.88086 12.752 10.1758 12.6152 10.3828 12.3418C10.5898 12.0645 10.6934 11.6738 10.6934 11.1699C10.6934 10.6855 10.5742 10.3145 10.3359 10.0566C10.0977 9.79883 9.75977 9.66992 9.32227 9.66992C8.91992 9.66992 8.59375 9.77539 8.34375 9.98633L8.17969 10.1387L6.83203 9.80469Z" fill="white"/>
</svg>
