<svg width="31" height="11" viewBox="0 0 31 11" fill="none" xmlns="http://www.w3.org/2000/svg">
<path fill-rule="evenodd" clip-rule="evenodd" d="M22.1118 2.62024C21.0228 2.01177 18.5443 1.86778 18.5443 2.98837C18.5443 3.43353 19.1051 3.7397 19.781 4.10872C20.8061 4.6684 22.096 5.37265 22.096 6.92562C22.096 9.40674 19.4756 10.3189 17.7392 10.3189C16.0026 10.3189 14.8662 9.75885 14.8662 9.75885L15.2449 7.53382C16.2868 8.38196 19.4439 8.62224 19.4439 7.27773C19.4439 6.71283 18.8225 6.37966 18.1019 5.99328C17.1074 5.46003 15.9239 4.82543 15.9239 3.34047C15.9239 0.619346 18.9229 0.0593262 20.186 0.0593262C21.3542 0.0593262 22.475 0.491507 22.475 0.491507L22.1118 2.62024ZM8.61209 0.236721L6.18572 7.0538L5.89871 5.58585L5.89892 5.58633L5.83567 5.25731C5.54202 4.61564 4.86191 3.39608 3.57769 2.35528C3.19802 2.04764 2.81529 1.78509 2.44531 1.56082L4.65049 10.1483H7.30204L11.3512 0.236721H8.61209ZM12.3439 0.236721L10.7533 10.1483H13.2981L14.8889 0.236721H12.3439ZM28.9292 0.236721H26.8831C25.9383 0.236721 25.7082 0.975373 25.7082 0.975373L21.913 10.1483H24.5655L25.0962 8.67613H28.3315L28.63 10.1483H30.9667L28.9292 0.236721ZM27.1668 2.93304L25.8295 6.64217H27.9191L27.1668 2.93304Z" fill="#005BAC"/>
<path d="M5.3635 1.40172C5.3635 1.40172 5.25818 0.494629 4.1338 0.494629H0.0488254L0.000976562 0.665105C0.000976562 0.665105 1.96454 1.07673 3.84833 2.6189C5.64856 4.09283 6.23583 5.93016 6.23583 5.93016L5.3635 1.40172Z" fill="#F6AC1D"/>
</svg>
