<svg width="24" height="15" viewBox="0 0 24 15" fill="none" xmlns="http://www.w3.org/2000/svg">
<path d="M8.62988 1.63757H15.0238V13.3458H8.62988V1.63757Z" fill="#FF5F00"/>
<path d="M9.03651 7.49172C9.03651 5.11995 10.1268 2.99289 11.8269 1.6376C10.5888 0.639951 9.01803 0.0375977 7.31791 0.0375977C3.27088 0.0375977 0 3.36936 0 7.49172C0 11.5952 3.27088 14.9458 7.31791 14.9458C9.01803 14.9458 10.5888 14.3435 11.8269 13.3458C10.1268 11.9717 9.03651 9.86348 9.03651 7.49172Z" fill="#EB001B"/>
<path fill-rule="evenodd" clip-rule="evenodd" d="M23.6541 7.49172C23.6541 11.5952 20.3832 14.9458 16.3362 14.9458C14.636 14.9458 13.0653 14.3435 11.8271 13.3458C13.5273 11.9905 14.6176 9.86348 14.6176 7.49172C14.6176 5.11995 13.5273 2.99289 11.8271 1.6376C13.0653 0.639951 14.636 0.0375977 16.3362 0.0375977C20.3832 0.0375977 23.6541 3.36936 23.6541 7.49172ZM22.9518 12.1035V11.8588H23.0442V11.8023H22.804V11.8588H22.8964V12.1035H22.9518ZM23.4323 11.8211V12.1035H23.3584V11.8776L23.2845 12.0658H23.229L23.1551 11.8776V12.1035H23.0997V11.8211H23.1736L23.266 12.0282L23.3584 11.8211H23.4323Z" fill="#F79E1B"/>
</svg>
